<?xml version="1.0" standalone="no"?><!DOCTYPE svg PUBLIC "-//W3C//DTD SVG 1.1//EN" "http://www.w3.org/Graphics/SVG/1.1/DTD/svg11.dtd"><svg t="1647484004090" class="icon" viewBox="0 0 1024 1024" version="1.1" xmlns="http://www.w3.org/2000/svg" p-id="1201" xmlns:xlink="http://www.w3.org/1999/xlink" width="64" height="64"><defs><style type="text/css"></style></defs><path d="M435.61188567 42.0722511q11.64048814-10.35630617 27.1749474-10.35630617t27.17494739 10.35630617l428.50252421 441.42719432q11.64048814 11.64048814 11.64048813 28.50055458t-11.64048813 28.50055458L489.96178046 981.9277489q-11.64048814 10.35630617-27.17494739 10.35630617t-27.1749474-11.64048814-11.64048814-27.17494739 11.64048814-27.1749474l403.89594073-414.25224691-403.89594073-414.25224692q-11.64048814-11.64048814-11.64048814-27.1749474t11.64048814-28.50055459z m-331.40179753 0q11.64048814-10.35630617 27.1749474-10.35630617t27.17494739 10.35630617l428.50252422 441.42719432q11.64048814 11.64048814 11.64048814 28.50055458t-11.64048814 28.50055458L158.55998293 981.9277489q-11.64048814 10.35630617-27.17494739 10.35630617t-27.1749474-11.64048814-11.64048814-27.17494739 11.64048814-27.1749474l403.89594075-414.25224691-403.89594075-414.25224692q-11.64048814-11.64048814-11.64048814-27.1749474t11.64048814-28.50055459z" p-id="1202"></path></svg>