<?xml version="1.0" standalone="no"?><!DOCTYPE svg PUBLIC "-//W3C//DTD SVG 1.1//EN" "http://www.w3.org/Graphics/SVG/1.1/DTD/svg11.dtd"><svg t="1664270433173" class="icon" viewBox="0 0 1024 1024" version="1.1" xmlns="http://www.w3.org/2000/svg" p-id="2688" xmlns:xlink="http://www.w3.org/1999/xlink" width="64" height="64"><path d="M512 32C246.4 32 32 246.4 32 512s214.4 480 480 480 480-214.4 480-480S777.6 32 512 32z m140.8 579.2c12.8 12.8 12.8 32 0 41.6-12.8 12.8-32 12.8-41.6 0L512 553.6l-99.2 99.2c-12.8 12.8-32 12.8-41.6 0s-12.8-32 0-41.6l99.2-99.2-99.2-99.2c-12.8-12.8-12.8-32 0-41.6 12.8-12.8 32-12.8 41.6 0l99.2 99.2 99.2-99.2c12.8-12.8 32-12.8 41.6 0 12.8 12.8 12.8 32 0 41.6L553.6 512l99.2 99.2z" p-id="2689"></path></svg>