<?xml version="1.0" standalone="no"?><!DOCTYPE svg PUBLIC "-//W3C//DTD SVG 1.1//EN" "http://www.w3.org/Graphics/SVG/1.1/DTD/svg11.dtd"><svg t="1647592098805" class="icon" viewBox="0 0 1024 1024" version="1.1" xmlns="http://www.w3.org/2000/svg" p-id="1112" xmlns:xlink="http://www.w3.org/1999/xlink" width="64" height="64"><defs><style type="text/css"></style></defs><path d="M877.90933333 333.89226667q20.75306667 2.18453333 41.50613334 10.92266667t36.0448 24.576 22.9376 39.86773333 2.18453333 57.89013334q-2.18453333 8.73813333-8.73813333 43.14453333t-15.29173334 79.18933333-19.6608 92.29653334-20.75306666 81.37386666q-5.46133333 19.6608-15.83786667 40.41386667t-26.76053333 37.6832-39.3216 27.8528-54.61333334 10.92266667l-605.11573333 0q-22.9376 0-47.5136-9.8304t-45.32906667-27.8528-33.86026666-43.69066667-13.1072-57.344l0-468.5824q0-66.62826667 36.0448-104.31146667t101.5808-37.6832l537.3952 0q24.02986667 0 49.69813333 9.28426667t46.42133333 25.66826667 33.86026667 38.22933333 13.1072 46.96746667l0 12.01493333-56.79786667 0q-43.69066667 0-102.12693333-0.54613333t-124.5184-0.54613334-123.42613333-0.54613333-98.85013334-0.54613333l-50.24426666 0q-28.39893333 0-44.2368 18.0224t-24.576 47.5136q-8.73813333 31.67573333-19.6608 67.1744t-19.6608 66.08213333q-10.92266667 36.0448-21.84533334 69.90506667-2.18453333 8.73813333-2.18453333 14.19946666 0 18.56853333 12.56106667 31.1296t31.1296 12.56106667q33.86026667 0 45.8752-42.5984l57.89013333-211.89973333q141.99466667 1.09226667 259.95946667 1.09226666l305.83466666 0z" p-id="1113"></path></svg>