<?xml version="1.0" standalone="no"?><!DOCTYPE svg PUBLIC "-//W3C//DTD SVG 1.1//EN" "http://www.w3.org/Graphics/SVG/1.1/DTD/svg11.dtd"><svg t="1647402664031" class="icon" viewBox="0 0 1024 1024" version="1.1" xmlns="http://www.w3.org/2000/svg" p-id="1081" xmlns:xlink="http://www.w3.org/1999/xlink" width="64" height="64"><defs><style type="text/css"></style></defs><path d="M928.51768889 761.48584334a36.40888889 36.40888889 0 0 1-62.44124444-37.47688334A410.49808555 410.49808555 0 0 0 924.63407445 512c0-227.89537223-184.73870222-412.63407445-412.63407445-412.63407445S99.36592555 284.10462777 99.36592555 512s184.73870222 412.63407445 412.63407445 412.63407445a410.49808555 410.49808555 0 0 0 211.98468779-58.53335779 36.40888889 36.40888889 0 0 1 37.46474666 62.44124444A483.30372779 483.30372779 0 0 1 512 997.45185223C243.8970789 997.45185223 26.54814777 780.1029211 26.54814777 512S243.8970789 26.54814777 512 26.54814777s485.45185223 217.34892999 485.45185223 485.45185223c0 89.08041443-24.06627555 174.72625778-68.93416334 249.48584334zM355.64809443 486.34387001l95.96169558 95.56119666 216.66929778-216.99697778a36.40888889 36.40888889 0 0 1 51.53071331 51.45789668l-242.36183665 242.72592554a36.40888889 36.40888889 0 0 1-51.45789668 0.07281778l-121.7270511-121.22946332a36.40888889 36.40888889 0 1 1 51.38507776-51.59139556z" p-id="1082"></path></svg>