<?xml version="1.0" standalone="no"?><!DOCTYPE svg PUBLIC "-//W3C//DTD SVG 1.1//EN" "http://www.w3.org/Graphics/SVG/1.1/DTD/svg11.dtd"><svg t="1647859451998" class="icon" viewBox="0 0 1024 1024" version="1.1" xmlns="http://www.w3.org/2000/svg" p-id="1535" xmlns:xlink="http://www.w3.org/1999/xlink" width="64" height="64"><defs><style type="text/css"></style></defs><path d="M895.54488889 651.60533333c-155.42044445-99.10044445-201.27288889-128.91022222-269.312-138.01244444 4.55111111 17.97688889 7.168 37.31911111 7.168 57.45777778 0 76.34488889-35.95377778 141.08444445-85.56088889 163.04355555v-101.60355555h-65.76355555v105.01688888c-54.15822222-17.86311111-94.32177778-85.67466667-94.32177778-166.45688888 0-19.56977778 2.38933333-38.34311111 6.71288888-55.86488889-64.28444445 11.03644445-118.10133333 43.91822222-277.73155555 141.99466667-53.248 35.38488889-84.42311111 209.92-84.42311111 256.11377777 0 121.17333333 214.12977778 87.72266667 478.208 87.72266667S988.72888889 1034.46755555 988.72888889 913.29422222c0.11377778-48.69688889-34.58844445-225.28-93.184-261.68888889z" p-id="1536"></path><path d="M512.7 604.4l32.7-59.7-32.7-32.8-32.8 32.8z" p-id="1537"></path><path d="M510.52088889 236.08888889m-227.78311111 0a227.78311111 227.78311111 0 1 0 455.56622222 0 227.78311111 227.78311111 0 1 0-455.56622222 0Z" p-id="1538"></path></svg>