<?xml version="1.0" standalone="no"?><!DOCTYPE svg PUBLIC "-//W3C//DTD SVG 1.1//EN" "http://www.w3.org/Graphics/SVG/1.1/DTD/svg11.dtd"><svg t="1647859446915" class="icon" viewBox="0 0 1024 1024" version="1.1" xmlns="http://www.w3.org/2000/svg" p-id="1385" xmlns:xlink="http://www.w3.org/1999/xlink" width="64" height="64"><defs><style type="text/css"></style></defs><path d="M485.03466667 725.67466667c0.11377778 0.11377778 0.22755555 0.22755555 0.34133333 0.45511111 4.66488889 12.85688889-22.75555555 297.07377778-19.79733333 295.59466667 2.95822222-1.59288889 109.34044445-3.072 109.34044444-3.072L544.99555555 727.26755555h-0.68266666l0.68266666-1.4791111-29.92355555-41.87022223-29.46844445 41.07377778c-1.024 0.11377778-1.25155555 0.34133333-0.56888888 0.68266667zM314.48177778 381.952c29.80977778 80.55466667 91.02222222 138.69511111 178.28977777 138.69511111 97.28 0 175.55911111-61.21244445 197.06311112-153.94133333 37.888-7.62311111 51.31377778-41.52888889 51.31377778-77.93777778 0-26.39644445-16.72533333-49.60711111-41.984-62.91911111-0.11377778-107.06488889-25.94133333-225.28-206.27911112-223.45955556C294.68444445 4.20977778 280.23466667 136.76088889 288.88177778 240.41244445c-24.23466667 13.53955555-40.16355555 36.29511111-40.16355556 62.00888888 0 40.73244445 16.72533333 78.16533333 65.76355556 79.53066667zM654.56355555 1012.84977778C893.952 998.51377778 994.19022222 963.69777778 994.19022222 963.69777778c-1.82044445-139.71911111-107.97511111-211.28533333-107.97511111-211.28533333-76.57244445-36.06755555-126.06577778-62.80533333-168.96-76.11733334-29.58222222 15.70133333-86.24355555 45.39733333-120.26311111 61.89511111l57.57155555 274.65955556zM302.42133333 670.60622222c-87.04 17.52177778-176.35555555 80.78222222-176.35555555 80.78222223-92.04622222 80.21333333-96.256 216.51911111-96.256 216.5191111 109.22666667 31.97155555 261.80266667 43.80444445 359.99288889 48.24177778l44.25955555-269.42577778 5.46133333-5.5751111c-33.22311111-17.63555555-110.592-57.11644445-137.10222222-70.54222223z" fill="#040000" p-id="1386"></path><path d="M374.32888889 560.24177778l-35.72622222 69.40444444 110.47822222 60.18844445 65.87733333-71.79377778 59.84711111 71.79377778 104.33422222-52.11022222-36.864-77.48266667c0.11377778 0-145.29422222 71.33866667-267.94666666 0z" fill="#040000" p-id="1387"></path></svg>