<?xml version="1.0" standalone="no"?><!DOCTYPE svg PUBLIC "-//W3C//DTD SVG 1.1//EN" "http://www.w3.org/Graphics/SVG/1.1/DTD/svg11.dtd"><svg t="1647830561065" class="icon" viewBox="0 0 1024 1024" version="1.1" xmlns="http://www.w3.org/2000/svg" p-id="1470" xmlns:xlink="http://www.w3.org/1999/xlink" width="64" height="64"><defs><style type="text/css"></style></defs><path d="M766.86222222 912.49777778H257.13777778c-20.02488889 0-36.40888889 16.384-36.40888889 36.40888889s16.384 36.40888889 36.40888889 36.40888888h509.72444444c20.02488889 0 36.40888889-16.384 36.40888889-36.40888888s-16.384-36.40888889-36.40888889-36.40888889zM876.08888889 38.68444445H147.91111111c-80.09955555 0-145.63555555 65.536-145.63555556 145.63555555v473.31555555c0 80.09955555 65.536 145.63555555 145.63555556 145.63555556h728.17777778c80.09955555 0 145.63555555-65.536 145.63555556-145.63555556V184.32c0-80.09955555-65.536-145.63555555-145.63555556-145.63555555zM584.81777778 548.40888889c0 20.02488889-16.384 36.40888889-36.40888889 36.40888889H257.13777778c-20.02488889 0-36.40888889-16.384-36.40888889-36.40888889s16.384-36.40888889 36.40888889-36.40888889h291.27111111c20.02488889 0 36.40888889 16.384 36.40888889 36.40888889z m218.45333333-254.86222222c0 20.02488889-16.384 36.40888889-36.40888889 36.40888888H257.13777778c-20.02488889 0-36.40888889-16.384-36.40888889-36.40888888s16.384-36.40888889 36.40888889-36.40888889h509.72444444c20.02488889 0 36.40888889 16.384 36.40888889 36.40888889z" p-id="1471"></path></svg>